<svg xmlns="http://www.w3.org/2000/svg" xmlns:xlink="http://www.w3.org/1999/xlink" width="162.00439453125" height="229" viewBox="0 0 162.00439453125 229" fill="none"><g opacity="1"  transform="translate(0 0)  rotate(0)"><path id="Path" fill-rule="evenodd" style="fill:#2564F4" opacity="0.4" d="M41.0443 5.09639L40.6943 130.496C40.9143 134.756 43.1543 138.636 46.7243 140.956L155.574 203.986C158.914 205.926 161.634 204.376 161.644 200.516L162.004 75.1264C161.774 70.8564 159.534 66.9864 155.974 64.6564L47.1243 1.63639C43.7743 -0.303613 41.0543 1.24639 41.0443 5.09639Z"></path><g opacity="0.6"  transform="translate(26.72998046875 8.12060546875)  rotate(0)"><path id="Path" fill-rule="evenodd" style="fill:#2564F4" opacity="1" d="M0.803613 4.87717L0.453613 130.267C0.673613 134.527 2.91361 138.427 6.48361 140.767L115.334 203.767C118.674 205.707 121.384 204.157 121.404 200.297L121.764 74.8972C121.534 70.6572 119.294 66.7572 115.734 64.4272L6.88361 1.43717C3.54361 -0.502832 0.803613 1.04717 0.803613 4.87717Z"></path></g><g opacity="0.8"  transform="translate(12.9599609375 16.2412109375)  rotate(0)"><path id="Path" fill-rule="evenodd" style="fill:#2564F4" opacity="1" d="M1.08706 4.68184L0.737061 130.092C0.957061 134.332 3.19706 138.232 6.76706 140.552L115.617 203.552C118.957 205.492 121.677 203.942 121.687 200.082L122.047 74.7018C121.827 70.4618 119.577 66.5618 116.017 64.2518L7.16706 1.22184C3.81706 -0.718164 1.09706 0.831836 1.08706 4.68184Z"></path></g><path id="Path" fill-rule="evenodd" style="fill:#FFFFFF" opacity="1" d="M119.04 227.709C118.03 228.289 116.66 228.139 115.17 227.279L114.74 228.019C115.63 228.569 116.64 228.879 117.68 228.919L119.46 228.449C120.74 227.709 121.44 226.219 121.45 224.189L121.81 98.7888C121.81 94.8088 119.02 89.9588 115.56 87.9488L6.71 24.9288C4.95 23.9288 3.24 23.7588 1.99 24.5188C0.73 25.2588 0 26.7988 0 28.7788L0.85 28.7788C0.85 27.0788 1.41 25.8288 2.41 25.2588C3.42 24.6888 4.8 24.8288 6.27 25.6888L115.14 88.6888C118.58 90.9388 120.74 94.6888 120.96 98.7888L120.6 224.189C120.6 225.889 120.04 227.139 119.04 227.709Z"></path><path id="Path" fill-rule="evenodd" fill="url(#linear_0)" opacity="1" d="M24 58.5322C21.97 57.3722 20.35 58.2922 20.35 60.6222L20.25 94.1922C20.38 96.7622 21.73 99.1222 23.88 100.522L53.04 117.402C55.08 118.562 56.7 117.632 56.7 115.312L56.77 81.7222C56.64 79.1622 55.29 76.8222 53.14 75.4222L24 58.5322Z"></path><path id="Path" fill-rule="evenodd" style="fill:#97B2F8" opacity="1" d="M73.2402 109.46L74.7002 111.94L74.3402 114.06L76.1502 114.01L77.9502 116.15L77.6102 113.63L79.0702 112.84L77.0602 111.33L76.1602 108.71L75.2602 110.29L73.2402 109.46Z"></path><path id="Path" fill-rule="evenodd" style="fill:#97B2F8" opacity="1" d="M70.3363 109.423L71.7963 108.633L69.7863 107.123L68.8863 104.503L67.9863 106.083L65.9663 105.253L67.4263 107.733L67.0763 109.843L68.8763 109.793L70.6763 111.933L70.3363 109.423Z"></path><path id="Path" fill-rule="evenodd" fill="url(#linear_1)" opacity="1" d="M67.3073 93.5949C66.1673 92.9349 65.2373 93.4649 65.2373 94.7849C65.3173 96.2349 66.0773 97.5549 67.2973 98.3449L81.4173 106.525C82.5573 107.185 83.4873 106.655 83.4873 105.345C83.4073 103.885 82.6473 102.565 81.4273 101.775L67.3073 93.5949Z"></path><path id="Path" fill-rule="evenodd" fill="url(#linear_2)" opacity="1" d="M67.3237 83.6533C66.1737 82.9833 65.2537 83.5233 65.2537 84.8233C65.3237 86.2733 66.0937 87.6033 67.3037 88.3933L99.6137 107.073C100.754 107.723 101.684 107.193 101.684 105.883C101.614 104.433 100.844 103.113 99.6337 102.323L67.3237 83.6533Z"></path><path id="Path" fill-rule="evenodd" style="fill:#97B2F8" opacity="1" d="M83.4139 118.217L85.2239 120.357L84.8839 117.837L86.3439 117.047L84.3339 115.537L83.4339 112.917L82.5339 114.497L80.5139 113.677L81.9639 116.157L81.6139 118.267L83.4139 118.217Z"></path><path id="Path" fill-rule="evenodd" style="fill:#97B2F8" opacity="1" d="M90.6898 122.423L92.4898 124.563L92.1498 122.053L93.6098 121.253L91.5998 119.753L90.6998 117.123L89.7998 118.703L87.7798 117.883L89.2398 120.363L88.8798 122.473L90.6898 122.423Z"></path><path id="Path" fill-rule="evenodd" style="fill:#97B2F8" opacity="1" d="M65.8286 155.479L67.2886 157.959L66.9286 160.079L68.7386 160.019L70.5386 162.159L70.1986 159.649L71.6586 158.859L69.6486 157.349L68.7486 154.729L67.8486 156.309L65.8286 155.479Z"></path><path id="Path" fill-rule="evenodd" style="fill:#97B2F8" opacity="1" d="M76.0225 158.936L75.1225 160.516L73.1025 159.696L74.5525 162.176L74.2025 164.286L76.0025 164.236L77.8125 166.376L77.4725 163.856L78.9325 163.066L76.9225 161.556L76.0225 158.936Z"></path><path id="Path" fill-rule="evenodd" fill="url(#linear_3)" opacity="1" d="M67.1596 143.853C66.0196 143.193 65.0996 143.723 65.0996 145.043C65.1696 146.493 65.9396 147.813 67.1496 148.603L81.2796 156.753C82.4196 157.413 83.3396 156.883 83.3396 155.563C83.2696 154.113 82.5096 152.793 81.2896 152.003L67.1596 143.853Z"></path><path id="Path" fill-rule="evenodd" fill="url(#linear_4)" opacity="1" d="M67.194 133.889C66.054 133.239 65.124 133.759 65.124 135.079C65.204 136.519 65.964 137.849 67.174 138.629L99.494 157.309C100.634 157.969 101.554 157.439 101.554 156.129C101.484 154.679 100.724 153.349 99.504 152.559L67.194 133.889Z"></path><path id="Path" fill-rule="evenodd" fill="url(#linear_5)" opacity="1" d="M82.2934 124.02C81.2834 123.44 80.4734 123.9 80.4734 125.07L80.4734 131.16C80.5434 132.45 81.2234 133.62 82.2934 134.32L99.7834 144.45C100.803 145.03 101.613 144.56 101.613 143.4L101.613 137.29C101.543 136.01 100.873 134.84 99.7934 134.14L82.2934 124.02Z"></path><path id="Path" fill-rule="evenodd" style="fill:#97B2F8" opacity="1" d="M96.1535 126.677L97.9635 126.627L99.7635 128.767L99.4235 126.257L100.883 125.467L98.8735 123.957L97.9735 121.337L97.0735 122.917L95.0535 122.087L96.5035 124.567L96.1535 126.677Z"></path><path id="Path" fill-rule="evenodd" fill="url(#linear_6)" opacity="1" d="M23.8462 108.776C21.8162 107.616 20.1962 108.546 20.1962 110.866L20.0962 144.436C20.2262 147.006 21.5762 149.346 23.7262 150.736L52.8862 167.616C54.9162 168.776 56.5362 167.856 56.5362 165.536L56.6362 131.946C56.4962 129.386 55.1462 127.046 52.9962 125.646L23.8462 108.776Z"></path><path id="Path" fill-rule="evenodd" style="fill:#97B2F8" opacity="1" d="M84.7382 168.07L86.1982 167.28L84.1882 165.76L83.2882 163.15L82.3882 164.73L80.3682 163.9L81.8282 166.38L81.4682 168.49L83.2782 168.44L85.0782 170.58L84.7382 168.07Z"></path><path id="Path" fill-rule="evenodd" style="fill:#97B2F8" opacity="1" d="M96.0077 176.903L97.8177 176.853L99.6177 178.993L99.2777 176.483L100.738 175.693L98.7277 174.183L97.8277 171.563L96.9277 173.143L94.9077 172.313L96.3677 174.793L96.0077 176.903Z"></path><path id="Path" fill-rule="evenodd" fill="url(#linear_7)" opacity="1" d="M82.1496 174.248C81.1296 173.668 80.3196 174.128 80.3196 175.288L80.3196 181.398C80.3996 182.678 81.0696 183.848 82.1296 184.548L99.6096 194.638C100.64 195.228 101.44 194.758 101.44 193.598L101.44 187.488C101.38 186.208 100.71 185.038 99.6296 184.338L82.1496 174.248Z"></path><path id="Path" fill-rule="evenodd" style="fill:#97B2F8" opacity="1" d="M87.6421 168.107L89.0921 170.587L88.7421 172.697L90.5521 172.647L92.3521 174.787L92.0121 172.277L93.4721 171.487L91.4621 169.977L90.5621 167.357L89.6621 168.937L87.6421 168.107Z"></path></g><defs><linearGradient id="linear_0" x1="-0.02217786648925508%" y1="50.0080105344652%" x2="100%" y2="50.0080105344652%" gradientUnits="objectBoundingBox"><stop offset="0" stop-color="#E9EEFF" stop-opacity="1" /><stop offset="0.2" stop-color="#F4F7FF" stop-opacity="1" /><stop offset="0.5" stop-color="#FCFDFF" stop-opacity="1" /><stop offset="1" stop-color="#FFFFFF" stop-opacity="1" /></linearGradient><linearGradient id="linear_1" x1="0%" y1="49.99999999999996%" x2="99.99999999999982%" y2="49.99999999999996%" gradientUnits="objectBoundingBox"><stop offset="0" stop-color="#E9EEFF" stop-opacity="1" /><stop offset="0.2" stop-color="#F4F7FF" stop-opacity="1" /><stop offset="0.5" stop-color="#FCFDFF" stop-opacity="1" /><stop offset="1" stop-color="#FFFFFF" stop-opacity="1" /></linearGradient><linearGradient id="linear_2" x1="0.044464206313845275%" y1="50.01090358368615%" x2="100.04446420631388%" y2="50.01090358368615%" gradientUnits="objectBoundingBox"><stop offset="0" stop-color="#E9EEFF" stop-opacity="1" /><stop offset="0.2" stop-color="#F4F7FF" stop-opacity="1" /><stop offset="0.5" stop-color="#FCFDFF" stop-opacity="1" /><stop offset="1" stop-color="#FFFFFF" stop-opacity="1" /></linearGradient><linearGradient id="linear_3" x1="0%" y1="49.879348050069154%" x2="99.99999999999993%" y2="49.879348050069154%" gradientUnits="objectBoundingBox"><stop offset="0" stop-color="#E9EEFF" stop-opacity="1" /><stop offset="0.2" stop-color="#F4F7FF" stop-opacity="1" /><stop offset="0.5" stop-color="#FCFDFF" stop-opacity="1" /><stop offset="1" stop-color="#FFFFFF" stop-opacity="1" /></linearGradient><linearGradient id="linear_4" x1="-9.4781156393077e-14%" y1="49.93186724200771%" x2="99.99999999999993%" y2="49.93186724200771%" gradientUnits="objectBoundingBox"><stop offset="0" stop-color="#E9EEFF" stop-opacity="1" /><stop offset="0.2" stop-color="#F4F7FF" stop-opacity="1" /><stop offset="0.5" stop-color="#FCFDFF" stop-opacity="1" /><stop offset="1" stop-color="#FFFFFF" stop-opacity="1" /></linearGradient><linearGradient id="linear_5" x1="-0.07662835249029729%" y1="50.000000000000114%" x2="100.00000000000011%" y2="50.000000000000114%" gradientUnits="objectBoundingBox"><stop offset="0" stop-color="#E9EEFF" stop-opacity="1" /><stop offset="0.2" stop-color="#F4F7FF" stop-opacity="1" /><stop offset="0.5" stop-color="#FCFDFF" stop-opacity="1" /><stop offset="1" stop-color="#FFFFFF" stop-opacity="1" /></linearGradient><linearGradient id="linear_6" x1="0.02216803369543043%" y1="49.99877128383734%" x2="100%" y2="49.99877128383734%" gradientUnits="objectBoundingBox"><stop offset="0" stop-color="#E9EEFF" stop-opacity="1" /><stop offset="0.2" stop-color="#F4F7FF" stop-opacity="1" /><stop offset="0.5" stop-color="#FCFDFF" stop-opacity="1" /><stop offset="1" stop-color="#FFFFFF" stop-opacity="1" /></linearGradient><linearGradient id="linear_7" x1="-1.0897894720246947e-13%" y1="50.06182796736625%" x2="100.11503067484664%" y2="50.06182796736625%" gradientUnits="objectBoundingBox"><stop offset="0" stop-color="#E9EEFF" stop-opacity="1" /><stop offset="0.2" stop-color="#F4F7FF" stop-opacity="1" /><stop offset="0.5" stop-color="#FCFDFF" stop-opacity="1" /><stop offset="1" stop-color="#FFFFFF" stop-opacity="1" /></linearGradient></defs></svg>
