<svg xmlns="http://www.w3.org/2000/svg" xmlns:xlink="http://www.w3.org/1999/xlink" width="200" height="282" viewBox="0 0 200 282" fill="none"><g opacity="1"  transform="translate(0 0)  rotate(0)"><path id="Path" fill-rule="evenodd" fill="url(#linear_0)" opacity="0.2" d="M50.67 6.28047L50.24 160.7C50.51 165.95 53.28 170.72 57.68 173.58L192.06 251.19C196.2 253.58 199.55 251.67 199.57 246.92L200 92.5105C199.72 87.2605 196.96 82.4805 192.56 79.6205L58.18 2.01047C54.04 -0.379531 50.69 1.53047 50.67 6.28047Z"></path><g opacity="0.4"  transform="translate(33 10)  rotate(0)"><path id="Path" fill-rule="evenodd" fill="url(#linear_1)" opacity="1" d="M0.989998 6.01535L0.559998 160.415C0.829998 165.665 3.6 170.465 8 173.355L142.38 250.925C146.52 253.315 149.86 251.405 149.89 246.655L150.32 92.2354C150.04 87.0053 147.28 82.2054 142.88 79.3454L8.5 1.76535C4.38 -0.624648 0.989998 1.28535 0.989998 6.01535Z"></path></g><g opacity="0.6"  transform="translate(16 20)  rotate(0)"><path id="Path" fill-rule="evenodd" fill="url(#linear_2)" opacity="1" d="M1.34 5.7707L0.910004 160.201C1.18 165.421 3.95 170.221 8.35 173.091L142.73 250.661C146.87 253.051 150.22 251.141 150.24 246.391L150.67 91.9907C150.4 86.7707 147.63 81.9707 143.23 79.1307L8.85 1.5007C4.71 -0.889297 1.36 1.0207 1.34 5.7707Z"></path></g><path id="Path" fill-rule="evenodd" fill="url(#linear_3)" opacity="1" d="M141.66 280.794C142.76 281.474 144 281.854 145.28 281.904L147.48 281.324C149.06 280.414 149.93 278.574 149.94 276.074L150.38 121.644C150.38 116.754 146.94 110.774 142.67 108.304L8.29 30.6943C6.11 29.4643 4 29.2643 2.45 30.1943C0.9 31.1043 0 32.9943 0 35.4443L1.05 35.4443C1.05 33.3443 1.74 31.8043 2.98 31.1043C4.23 30.3943 5.92 30.5743 7.74 31.6343L142.15 109.214C146.39 111.984 149.06 116.604 149.33 121.644L148.89 276.074C148.89 278.164 148.2 279.704 146.97 280.414C145.72 281.114 144.02 280.944 142.18 279.884L141.66 280.794Z"></path><path id="Path" fill-rule="evenodd" fill="url(#linear_4)" opacity="1" d="M29.63 72.0834C27.12 70.6534 25.12 71.7834 25.12 74.6434L25 115.993C25.16 119.163 26.83 122.053 29.48 123.793L65.48 144.573C68 146.003 70 144.853 70 142.003L70.09 100.643C69.92 97.4834 68.26 94.5934 65.61 92.8734L29.63 72.0834Z"></path><path id="Path" fill-rule="evenodd" fill="url(#linear_5)" opacity="1" d="M92.22 137.85L91.78 140.46L94.01 140.4L96.23 143.03L95.81 139.93L97.62 138.95L95.13 137.1L94.03 133.87L92.91 135.82L90.42 134.79L92.22 137.85Z"></path><path id="Path" fill-rule="evenodd" fill="url(#linear_6)" opacity="1" d="M88.64 133.77L86.16 131.92L85.05 128.69L83.93 130.63L81.44 129.61L83.24 132.67L82.81 135.27L85.03 135.21L87.26 137.84L86.84 134.75L88.64 133.77Z"></path><path id="Path" fill-rule="evenodd" fill="url(#linear_7)" opacity="1" d="M83.09 115.262C81.69 114.452 80.54 115.102 80.54 116.722C80.64 118.502 81.58 120.142 83.08 121.112L100.52 131.182C101.92 131.992 103.07 131.342 103.07 129.722C102.97 127.932 102.03 126.302 100.53 125.332L83.09 115.262Z"></path><path id="Path" fill-rule="evenodd" fill="url(#linear_8)" opacity="1" d="M83.11 103.007C81.7 102.187 80.56 102.847 80.56 104.457C80.65 106.247 81.59 107.877 83.09 108.847L122.98 131.847C124.39 132.657 125.54 131.997 125.54 130.387C125.45 128.607 124.5 126.977 123 125.997L83.11 103.007Z"></path><path id="Path" fill-rule="evenodd" fill="url(#linear_9)" opacity="1" d="M105.21 148.21L104.79 145.11L106.6 144.13L104.11 142.28L103 139.05L101.89 141L99.4 139.98L101.19 143.04L100.76 145.64L102.98 145.58L105.21 148.21Z"></path><path id="Path" fill-rule="evenodd" fill="url(#linear_10)" opacity="1" d="M115.57 149.32L113.08 147.47L111.98 144.23L110.86 146.18L108.37 145.16L110.17 148.22L109.73 150.82L111.96 150.76L114.18 153.39L113.77 150.3L115.57 149.32Z"></path><path id="Path" fill-rule="evenodd" fill="url(#linear_11)" opacity="1" d="M83.07 194.52L82.63 197.13L84.86 197.06L87.08 199.69L86.67 196.6L88.47 195.63L85.98 193.77L84.88 190.54L83.76 192.49L81.27 191.47L83.07 194.52Z"></path><path id="Path" fill-rule="evenodd" fill="url(#linear_12)" opacity="1" d="M93.85 195.72L92.74 197.67L90.25 196.65L92.04 199.71L91.61 202.31L93.83 202.25L96.06 204.88L95.64 201.78L97.45 200.81L94.96 198.95L93.85 195.72Z"></path><path id="Path" fill-rule="evenodd" fill="url(#linear_13)" opacity="1" d="M82.92 177.152C81.51 176.342 80.37 176.992 80.37 178.612C80.46 180.392 81.4 182.022 82.9 183.002L100.34 193.032C101.75 193.842 102.89 193.192 102.89 191.572C102.8 189.782 101.86 188.152 100.36 187.182L82.92 177.152Z"></path><path id="Path" fill-rule="evenodd" fill="url(#linear_14)" opacity="1" d="M82.95 164.882C81.55 164.072 80.4 164.722 80.4 166.342C80.5 168.122 81.43 169.752 82.93 170.722L122.83 193.722C124.24 194.532 125.38 193.882 125.38 192.272C125.29 190.482 124.35 188.842 122.84 187.872L82.95 164.882Z"></path><path id="Path" fill-rule="evenodd" fill="url(#linear_15)" opacity="1" d="M101.6 152.715C100.35 152.015 99.35 152.575 99.35 154.015L99.35 161.515C99.44 163.095 100.28 164.545 101.6 165.415L123.19 177.885C124.45 178.585 125.45 178.025 125.45 176.585L125.45 169.075C125.37 167.495 124.53 166.045 123.2 165.185L101.6 152.715Z"></path><path id="Path" fill-rule="evenodd" fill="url(#linear_16)" opacity="1" d="M123.16 158.57L122.74 155.48L124.55 154.5L122.06 152.65L120.96 149.42L119.84 151.36L117.35 150.34L119.14 153.4L118.71 156L120.94 155.94L123.16 158.57Z"></path><path id="Path" fill-rule="evenodd" fill="url(#linear_17)" opacity="1" d="M29.44 133.945C26.93 132.515 24.93 133.665 24.93 136.515L24.81 177.865C24.97 181.025 26.64 183.905 29.29 185.625L65.29 206.405C67.8 207.835 69.8 206.705 69.8 203.845L69.92 162.485C69.75 159.335 68.08 156.445 65.43 154.725L29.44 133.945Z"></path><path id="Path" fill-rule="evenodd" fill="url(#linear_18)" opacity="1" d="M102.81 207.43L105.03 210.06L104.61 206.97L106.42 205.99L103.93 204.13L102.83 200.91L101.71 202.85L99.22 201.83L101.02 204.89L100.58 207.49L102.81 207.43Z"></path><path id="Path" fill-rule="evenodd" style="fill:#FFFFFF" opacity="1" d="M118.53 217.85L120.76 217.79L122.98 220.42L122.57 217.33L124.37 216.35L121.88 214.5L120.78 211.27L119.66 213.22L117.17 212.2L118.97 215.25L118.53 217.85Z"></path><path id="Path" fill-rule="evenodd" fill="url(#linear_19)" opacity="1" d="M101.42 214.579C100.16 213.859 99.16 214.429 99.16 215.859L99.16 223.379C99.25 224.959 100.08 226.389 101.4 227.259L122.98 239.689C124.24 240.409 125.24 239.829 125.24 238.409L125.24 230.879C125.16 229.299 124.33 227.859 123 226.999L101.42 214.579Z"></path><path id="Path" fill-rule="evenodd" fill="url(#linear_20)" opacity="1" d="M113.59 212.15L115.4 211.17L112.91 209.32L111.81 206.09L110.69 208.03L108.2 207.01L109.99 210.07L109.56 212.67L111.79 212.61L114.01 215.24L113.59 212.15Z"></path></g><defs><linearGradient id="linear_0" x1="50%" y1="0.007758052851951992%" x2="51%" y2="99.9984547982742%" gradientUnits="objectBoundingBox"><stop offset="0" stop-color="#0990FD" stop-opacity="1" /><stop offset="1" stop-color="#4C40E7" stop-opacity="1" /></linearGradient><linearGradient id="linear_1" x1="50.0133547008547%" y1="0.001842783591492043%" x2="51.0133547008547%" y2="99.99986608119167%" gradientUnits="objectBoundingBox"><stop offset="0" stop-color="#0990FD" stop-opacity="1" /><stop offset="1" stop-color="#4C40E7" stop-opacity="1" /></linearGradient><linearGradient id="linear_2" x1="50.000000000000014%" y1="-0.0002023722016897154%" x2="51.000000000000014%" y2="99.99845467526004%" gradientUnits="objectBoundingBox"><stop offset="0" stop-color="#0990FD" stop-opacity="1" /><stop offset="1" stop-color="#4C40E7" stop-opacity="1" /></linearGradient><linearGradient id="linear_3" x1="0%" y1="50.00104023809699%" x2="100%" y2="50.00104023809699%" gradientUnits="objectBoundingBox"><stop offset="0" stop-color="#0396FF" stop-opacity="1" /><stop offset="0.17" stop-color="#069FFD" stop-opacity="1" /><stop offset="0.45" stop-color="#0DB7F7" stop-opacity="1" /><stop offset="0.81" stop-color="#19DFEE" stop-opacity="1" /><stop offset="1" stop-color="#21F7E8" stop-opacity="1" /></linearGradient><linearGradient id="linear_4" x1="49.988911066755364%" y1="99.99369651747095%" x2="50.988911066755364%" y2="0.02232455145945155%" gradientUnits="objectBoundingBox"><stop offset="0" stop-color="#0396FF" stop-opacity="1" /><stop offset="0.17" stop-color="#069FFD" stop-opacity="1" /><stop offset="0.45" stop-color="#0DB7F7" stop-opacity="1" /><stop offset="0.81" stop-color="#19DFEE" stop-opacity="1" /><stop offset="1" stop-color="#21F7E8" stop-opacity="1" /></linearGradient><linearGradient id="linear_5" x1="0%" y1="49.999999999999844%" x2="100%" y2="49.999999999999844%" gradientUnits="objectBoundingBox"><stop offset="0" stop-color="#FFB200" stop-opacity="1" /><stop offset="1" stop-color="#FFD100" stop-opacity="1" /></linearGradient><linearGradient id="linear_6" x1="0.1388888888889599%" y1="49.94535519125672%" x2="100%" y2="49.94535519125672%" gradientUnits="objectBoundingBox"><stop offset="0" stop-color="#FFB200" stop-opacity="1" /><stop offset="1" stop-color="#FFD100" stop-opacity="1" /></linearGradient><linearGradient id="linear_7" x1="0%" y1="49.99999999999996%" x2="99.99999999999982%" y2="49.99999999999996%" gradientUnits="objectBoundingBox"><stop offset="0" stop-color="#E9EEFF" stop-opacity="1" /><stop offset="0.2" stop-color="#F4F7FF" stop-opacity="1" /><stop offset="0.5" stop-color="#FCFDFF" stop-opacity="1" /><stop offset="1" stop-color="#FFFFFF" stop-opacity="1" /></linearGradient><linearGradient id="linear_8" x1="0.044464206313845275%" y1="50.01090358368615%" x2="100.04446420631388%" y2="50.01090358368615%" gradientUnits="objectBoundingBox"><stop offset="0" stop-color="#E9EEFF" stop-opacity="1" /><stop offset="0.2" stop-color="#F4F7FF" stop-opacity="1" /><stop offset="0.5" stop-color="#FCFDFF" stop-opacity="1" /><stop offset="1" stop-color="#FFFFFF" stop-opacity="1" /></linearGradient><linearGradient id="linear_9" x1="0%" y1="49.999999999999844%" x2="100%" y2="49.999999999999844%" gradientUnits="objectBoundingBox"><stop offset="0" stop-color="#FFB200" stop-opacity="1" /><stop offset="1" stop-color="#FFD100" stop-opacity="1" /></linearGradient><linearGradient id="linear_10" x1="0%" y1="50.000000000000156%" x2="100%" y2="50.000000000000156%" gradientUnits="objectBoundingBox"><stop offset="0" stop-color="#FFB200" stop-opacity="1" /><stop offset="1" stop-color="#FFD100" stop-opacity="1" /></linearGradient><linearGradient id="linear_11" x1="0%" y1="50.05464480874328%" x2="100%" y2="50.05464480874328%" gradientUnits="objectBoundingBox"><stop offset="0" stop-color="#FFB200" stop-opacity="1" /><stop offset="1" stop-color="#FFD100" stop-opacity="1" /></linearGradient><linearGradient id="linear_12" x1="0%" y1="50.000000000000156%" x2="100%" y2="50.000000000000156%" gradientUnits="objectBoundingBox"><stop offset="0" stop-color="#FFB200" stop-opacity="1" /><stop offset="1" stop-color="#FFD100" stop-opacity="1" /></linearGradient><linearGradient id="linear_13" x1="0%" y1="49.879348050069154%" x2="99.99999999999993%" y2="49.879348050069154%" gradientUnits="objectBoundingBox"><stop offset="0" stop-color="#E9EEFF" stop-opacity="1" /><stop offset="0.2" stop-color="#F4F7FF" stop-opacity="1" /><stop offset="0.5" stop-color="#FCFDFF" stop-opacity="1" /><stop offset="1" stop-color="#FFFFFF" stop-opacity="1" /></linearGradient><linearGradient id="linear_14" x1="-9.4781156393077e-14%" y1="49.93186724200771%" x2="99.99999999999993%" y2="49.93186724200771%" gradientUnits="objectBoundingBox"><stop offset="0" stop-color="#E9EEFF" stop-opacity="1" /><stop offset="0.2" stop-color="#F4F7FF" stop-opacity="1" /><stop offset="0.5" stop-color="#FCFDFF" stop-opacity="1" /><stop offset="1" stop-color="#FFFFFF" stop-opacity="1" /></linearGradient><linearGradient id="linear_15" x1="49.961685823754905%" y1="99.98057854936575%" x2="50.961685823754905%" y2="-0.019383346375970868%" gradientUnits="objectBoundingBox"><stop offset="0" stop-color="#0396FF" stop-opacity="1" /><stop offset="0.17" stop-color="#069FFD" stop-opacity="1" /><stop offset="0.45" stop-color="#0DB7F7" stop-opacity="1" /><stop offset="0.81" stop-color="#19DFEE" stop-opacity="1" /><stop offset="1" stop-color="#21F7E8" stop-opacity="1" /></linearGradient><linearGradient id="linear_16" x1="0%" y1="49.945355191257036%" x2="100%" y2="49.945355191257036%" gradientUnits="objectBoundingBox"><stop offset="0" stop-color="#FFB200" stop-opacity="1" /><stop offset="1" stop-color="#FFD100" stop-opacity="1" /></linearGradient><linearGradient id="linear_17" x1="50.011084016847704%" y1="100.0048066778265%" x2="51.011084016847704%" y2="-0.00726411015181427%" gradientUnits="objectBoundingBox"><stop offset="0" stop-color="#0396FF" stop-opacity="1" /><stop offset="0.17" stop-color="#069FFD" stop-opacity="1" /><stop offset="0.45" stop-color="#0DB7F7" stop-opacity="1" /><stop offset="0.81" stop-color="#19DFEE" stop-opacity="1" /><stop offset="1" stop-color="#21F7E8" stop-opacity="1" /></linearGradient><linearGradient id="linear_18" x1="0%" y1="49.94535519125672%" x2="100%" y2="49.94535519125672%" gradientUnits="objectBoundingBox"><stop offset="0" stop-color="#FFB200" stop-opacity="1" /><stop offset="1" stop-color="#FFD100" stop-opacity="1" /></linearGradient><linearGradient id="linear_19" x1="50.07668711656438%" y1="100.15684107053869%" x2="51.07668711656438%" y2="0.005678334405709217%" gradientUnits="objectBoundingBox"><stop offset="0" stop-color="#0396FF" stop-opacity="1" /><stop offset="0.17" stop-color="#069FFD" stop-opacity="1" /><stop offset="0.45" stop-color="#0DB7F7" stop-opacity="1" /><stop offset="0.81" stop-color="#19DFEE" stop-opacity="1" /><stop offset="1" stop-color="#21F7E8" stop-opacity="1" /></linearGradient><linearGradient id="linear_20" x1="0%" y1="50.054644808742964%" x2="100%" y2="50.054644808742964%" gradientUnits="objectBoundingBox"><stop offset="0" stop-color="#FFB200" stop-opacity="1" /><stop offset="1" stop-color="#FFD100" stop-opacity="1" /></linearGradient></defs></svg>
